<?xml version="1.0" ?><svg viewBox="0 0 64 64" xmlns="http://www.w3.org/2000/svg"><title/><g data-name="Layer 3" id="Layer_3"><path d="M18.38,43.43A10.5,10.5,0,0,0,23.66,49,30.56,30.56,0,0,0,27,50.27c.49.16,1,.3,1.52.42v2a1.14,1.14,0,0,1-1.06,1.13l-7,.47a4.27,4.27,0,0,0-4,4.25v4h31v-4a4.27,4.27,0,0,0-4-4.25l-7-.47a1.14,1.14,0,0,1-1.06-1.13v-2c.53-.12,1-.26,1.52-.42A30.56,30.56,0,0,0,40.34,49a10.5,10.5,0,0,0,5.28-5.53A4.51,4.51,0,0,0,49.5,39v-5.8a1.69,1.69,0,0,0-1.69-1.69h-.12a17,17,0,1,0-31.38,0h-.12a1.69,1.69,0,0,0-1.69,1.69V39A4.51,4.51,0,0,0,18.38,43.43ZM36.5,54.8l1.42.09c-.3.83-1.53,3.26-5.92,3.33s-5.64-2.48-5.92-3.32l1.42-.1a2.15,2.15,0,0,0,2-2.13V50.89l.64.07.43,0a15.18,15.18,0,0,0,2.86,0l.43,0,.64-.07v1.78A2.15,2.15,0,0,0,36.5,54.8Zm-21-21.61a.69.69,0,0,1,.69-.69h.49l1.77,4.79h.73l0-1.18L19,32l1.84-6.13A73.18,73.18,0,0,0,32,26.71a73.18,73.18,0,0,0,11.16-.84L45,32l-.14,4.11,0,1.18h.73l1.77-4.79h.49a.68.68,0,0,1,.69.69V39a3.51,3.51,0,0,1-3.27,3.48l-.31,0-.12.3a9.53,9.53,0,0,1-4.88,5.27,30.78,30.78,0,0,1-3.22,1.26,14.44,14.44,0,0,1-5.49.73,15,15,0,0,1-2.11-.25,16.82,16.82,0,0,1-1.8-.47,33.18,33.18,0,0,1-3.22-1.27,9.53,9.53,0,0,1-4.88-5.27l-.12-.3-.31,0A3.51,3.51,0,0,1,15.5,39Z"/><path d="M26,40a1,1,0,0,0,1-1V36a1,1,0,0,0-2,0v3A1,1,0,0,0,26,40Z"/><path d="M38,40a1,1,0,0,0,1-1V36a1,1,0,0,0-2,0v3A1,1,0,0,0,38,40Z"/></g></svg>